<svg width="81" height="81" viewBox="0 0 81 81" fill="none" xmlns="http://www.w3.org/2000/svg">
<mask id="mask0_31_117" style="mask-type:alpha" maskUnits="userSpaceOnUse" x="0" y="0" width="81" height="81">
<rect x="0.5" y="0.5" width="80" height="80" fill="#D9D9D9"/>
</mask>
<g mask="url(#mask0_31_117)">
<path d="M32.8346 61.25L29.3346 57.75L37.0013 50.0833L29.3346 42.4166L32.8346 38.9166L40.5013 46.5833L48.168 38.9166L51.668 42.4166L44.0013 50.0833L51.668 57.75L48.168 61.25L40.5013 53.5833L32.8346 61.25ZM18.168 72.1666C16.5013 72.1666 15.0846 71.5833 13.918 70.4166C12.7513 69.25 12.168 67.8333 12.168 66.1666V21.5C12.168 19.8333 12.7513 18.4166 13.918 17.25C15.0846 16.0833 16.5013 15.5 18.168 15.5H22.8346V8.41663H27.918V15.5H53.168V8.41663H58.168V15.5H62.8346C64.5013 15.5 65.918 16.0833 67.0846 17.25C68.2513 18.4166 68.8346 19.8333 68.8346 21.5V66.1666C68.8346 67.8333 68.2513 69.25 67.0846 70.4166C65.918 71.5833 64.5013 72.1666 62.8346 72.1666H18.168ZM18.168 67.1666H62.8346C63.0569 67.1666 63.2791 67.0555 63.5013 66.8333C63.7235 66.6111 63.8346 66.3889 63.8346 66.1666V34.8333H17.168V66.1666C17.168 66.3889 17.2791 66.6111 17.5013 66.8333C17.7235 67.0555 17.9457 67.1666 18.168 67.1666ZM17.168 29.8333H63.8346V21.5C63.8346 21.2777 63.7235 21.0555 63.5013 20.8333C63.2791 20.6111 63.0569 20.5 62.8346 20.5H18.168C17.9457 20.5 17.7235 20.6111 17.5013 20.8333C17.2791 21.0555 17.168 21.2777 17.168 21.5V29.8333Z" fill="url(#paint0_linear_31_117)"/>
</g>
<defs>
<linearGradient id="paint0_linear_31_117" x1="40.8247" y1="-29.8018" x2="-24.0862" y2="28.5965" gradientUnits="userSpaceOnUse">
<stop stop-color="#FFFA8F"/>
<stop offset="1" stop-color="#FF9D53"/>
</linearGradient>
</defs>
</svg>
