<svg width="81" height="81" viewBox="0 0 81 81" fill="none" xmlns="http://www.w3.org/2000/svg">
<mask id="mask0_29_984" style="mask-type:alpha" maskUnits="userSpaceOnUse" x="0" y="0" width="81" height="81">
<rect x="0.5" y="0.5" width="80" height="80" fill="#D9D9D9"/>
</mask>
<g mask="url(#mask0_29_984)">
<path d="M28.5013 57.1667L40.5013 45.1667L52.5013 57.1667L57.168 52.5L45.168 40.5L57.168 28.5L52.5013 23.8334L40.5013 35.8334L28.5013 23.8334L23.8346 28.5L35.8346 40.5L23.8346 52.5L28.5013 57.1667ZM40.5013 73.8334C35.8902 73.8334 31.5569 72.9578 27.5013 71.2067C23.4457 69.4578 19.918 67.0834 16.918 64.0834C13.918 61.0834 11.5435 57.5556 9.79464 53.5C8.04352 49.4445 7.16797 45.1111 7.16797 40.5C7.16797 35.8889 8.04352 31.5556 9.79464 27.5C11.5435 23.4445 13.918 19.9167 16.918 16.9167C19.918 13.9167 23.4457 11.5411 27.5013 9.79002C31.5569 8.04113 35.8902 7.16669 40.5013 7.16669C45.1124 7.16669 49.4457 8.04113 53.5013 9.79002C57.5569 11.5411 61.0846 13.9167 64.0846 16.9167C67.0846 19.9167 69.4591 23.4445 71.208 27.5C72.9591 31.5556 73.8346 35.8889 73.8346 40.5C73.8346 45.1111 72.9591 49.4445 71.208 53.5C69.4591 57.5556 67.0846 61.0834 64.0846 64.0834C61.0846 67.0834 57.5569 69.4578 53.5013 71.2067C49.4457 72.9578 45.1124 73.8334 40.5013 73.8334ZM40.5013 67.1667C47.9457 67.1667 54.2513 64.5834 59.418 59.4167C64.5846 54.25 67.168 47.9445 67.168 40.5C67.168 33.0556 64.5846 26.75 59.418 21.5834C54.2513 16.4167 47.9457 13.8334 40.5013 13.8334C33.0569 13.8334 26.7513 16.4167 21.5846 21.5834C16.418 26.75 13.8346 33.0556 13.8346 40.5C13.8346 47.9445 16.418 54.25 21.5846 59.4167C26.7513 64.5834 33.0569 67.1667 40.5013 67.1667Z" fill="#FF1F00"/>
</g>
</svg>
