<svg width="700" height="193" viewBox="0 0 700 193" fill="none" xmlns="http://www.w3.org/2000/svg">
<path fill-rule="evenodd" clip-rule="evenodd" d="M394.036 26.5386C381.892 26.5386 371.382 31.8236 364.828 41.1368C360.525 34.0287 352.513 26.5386 337.878 26.5386C327.989 26.5386 319.514 30.1013 313.581 36.6642V27.7817H299.176V119.434H313.581V60.7318C313.581 48.4636 324.781 40.2235 335.246 40.2235C347.96 40.2235 355.862 49.3109 355.862 63.93V119.434H370.264V62.1521C370.264 51.5507 376.052 40.2235 392.279 40.2235C404.91 40.2235 413.073 49.5297 413.073 63.93V119.434H427.471V63.93C427.471 40.8659 414.666 26.5386 394.036 26.5386Z" fill="url(#paint0_linear_40_100)"/>
<path fill-rule="evenodd" clip-rule="evenodd" d="M76.2407 63.8339C79.6995 49.6316 91.826 39.874 106.324 39.874C120.677 39.874 131.702 49.4267 134.234 63.8339H76.2407ZM106.67 26.1855C80.2828 26.1855 61.1289 46.0931 61.1289 73.5186C61.1289 101.284 79.7132 120.674 106.324 120.674C123.954 120.674 137.693 112.983 146.049 98.4334L146.769 97.1799L134.423 89.1481L133.637 90.5128C127.125 101.753 118.447 106.99 106.324 106.99C89.4377 106.99 76.4603 94.197 75.5784 76.9876H148.886V72.2685C148.8 58.4064 144.504 46.6765 136.461 38.3391C128.895 30.5018 118.316 26.1855 106.67 26.1855Z" fill="url(#paint1_linear_40_100)"/>
<path fill-rule="evenodd" clip-rule="evenodd" d="M0 119.61H14.398V41.4696H55.6397V27.7847H0V119.61Z" fill="url(#paint2_linear_40_100)"/>
<path fill-rule="evenodd" clip-rule="evenodd" d="M454.87 63.8339C458.332 49.6316 470.455 39.874 484.952 39.874C499.302 39.874 510.327 49.4267 512.863 63.8339H454.87ZM485.299 26.1855C458.915 26.1855 439.758 46.0931 439.758 73.5186C439.758 101.284 458.342 120.674 484.952 120.674C502.583 120.674 516.322 112.983 524.681 98.4334L525.401 97.1799L513.052 89.1481L512.266 90.5128C505.75 101.753 497.075 106.99 484.952 106.99C468.07 106.99 455.089 94.197 454.207 76.9876H527.512V72.2685C527.429 58.4064 523.133 46.6765 515.09 38.3391C507.524 30.5018 496.949 26.1855 485.299 26.1855Z" fill="url(#paint3_linear_40_100)"/>
<mask id="mask0_40_100" style="mask-type:alpha" maskUnits="userSpaceOnUse" x="0" y="0" width="700" height="122">
<path fill-rule="evenodd" clip-rule="evenodd" d="M0 121.03H699.585V0.716553H0V121.03Z" fill="white"/>
</mask>
<g mask="url(#mask0_40_100)">
<path fill-rule="evenodd" clip-rule="evenodd" d="M266.09 119.429H280.491V0.712891H266.09V119.429Z" fill="url(#paint4_linear_40_100)"/>
<path fill-rule="evenodd" clip-rule="evenodd" d="M204.491 106.456C186.937 106.456 173.698 92.4482 173.698 73.8741C173.698 55.1958 186.937 41.115 204.491 41.115C222.702 41.115 234.935 54.279 234.935 73.8741C234.935 93.3615 222.702 106.456 204.491 106.456ZM233.178 36.3889C225.581 30.0969 215.571 26.5376 205.191 26.5376C192.317 26.5376 180.592 31.3886 172.178 40.1878C163.871 48.8759 159.297 60.8385 159.297 73.8741C159.297 86.8993 163.871 98.8341 172.182 107.474C180.585 116.217 192.307 121.03 205.191 121.03C215.712 121.03 225.718 117.492 233.178 111.22V119.61H247.404V27.9613H233.178V36.3889Z" fill="url(#paint5_linear_40_100)"/>
<path fill-rule="evenodd" clip-rule="evenodd" d="M565.344 36.7966L588.598 25.532V118.896H603.861V1.54077L565.344 20.1948V36.7966Z" fill="url(#paint6_linear_40_100)"/>
<path fill-rule="evenodd" clip-rule="evenodd" d="M683.959 72.4333C683.959 97.1572 676.478 105.824 663.055 105.89C649.631 105.824 642.151 97.1572 642.151 72.4333V60.9013V49.3693C642.151 24.6454 649.631 15.9782 663.055 15.9157C676.478 15.9782 683.959 24.6454 683.959 49.3693V60.9013V72.4333ZM664.297 1.14039V1.07788H663.422C663.298 1.07788 663.178 1.09177 663.055 1.09177C662.931 1.09177 662.821 1.07788 662.698 1.07788H661.823V1.14039C640.569 1.78279 626.531 15.2455 626.531 48.1505V60.9013V73.6556C626.531 106.557 640.569 120.02 661.823 120.666V120.725H662.698C662.821 120.725 662.931 120.711 663.055 120.711C663.178 120.711 663.298 120.725 663.422 120.725H664.297V120.666C685.541 120.02 699.589 106.557 699.589 73.6556V60.9013V48.1505C699.589 15.2455 685.541 1.78279 664.297 1.14039Z" fill="url(#paint7_linear_40_100)"/>
</g>
<path d="M15.011 178.85H19.1531C19.0206 180.43 18.5787 181.838 17.8276 183.075C17.0765 184.301 16.0217 185.268 14.6631 185.975C13.3045 186.682 11.6531 187.035 9.70911 187.035C8.21795 187.035 6.8759 186.77 5.68297 186.24C4.49005 185.699 3.46833 184.936 2.61781 183.953C1.7673 182.959 1.11561 181.761 0.662738 180.358C0.220913 178.955 0 177.387 0 175.653V173.648C0 171.914 0.226435 170.345 0.679306 168.942C1.14322 167.54 1.80596 166.341 2.66752 165.347C3.52908 164.342 4.56184 163.574 5.76582 163.044C6.98084 162.514 8.34497 162.249 9.85822 162.249C11.7802 162.249 13.4039 162.602 14.7293 163.309C16.0548 164.016 17.0821 164.994 17.8111 166.242C18.5511 167.49 19.004 168.92 19.1697 170.533H15.0276C14.9171 169.495 14.6741 168.606 14.2986 167.865C13.9341 167.125 13.3928 166.562 12.6749 166.175C11.9569 165.778 11.018 165.579 9.85822 165.579C8.9083 165.579 8.07988 165.756 7.37296 166.109C6.66604 166.463 6.07509 166.982 5.60013 167.667C5.12517 168.351 4.76619 169.196 4.52318 170.202C4.29123 171.196 4.17525 172.333 4.17525 173.615V175.653C4.17525 176.868 4.28018 177.972 4.49005 178.966C4.71096 179.949 5.04233 180.794 5.48415 181.501C5.93702 182.208 6.5114 182.755 7.20727 183.142C7.90315 183.528 8.73709 183.721 9.70911 183.721C10.891 183.721 11.8464 183.534 12.5754 183.158C13.3155 182.783 13.8733 182.236 14.2489 181.518C14.6355 180.789 14.8895 179.9 15.011 178.85Z" fill="white"/>
<path d="M42.1667 173.979V175.305C42.1667 177.127 41.9292 178.762 41.4542 180.209C40.9793 181.656 40.3 182.888 39.4163 183.904C38.5437 184.92 37.4944 185.699 36.2683 186.24C35.0422 186.77 33.6836 187.035 32.1925 187.035C30.7124 187.035 29.3593 186.77 28.1332 186.24C26.9182 185.699 25.8633 184.92 24.9686 183.904C24.0739 182.888 23.3781 181.656 22.881 180.209C22.395 178.762 22.152 177.127 22.152 175.305V173.979C22.152 172.157 22.395 170.527 22.881 169.092C23.367 167.645 24.0519 166.413 24.9355 165.397C25.8302 164.37 26.8851 163.591 28.1001 163.061C29.3261 162.519 30.6792 162.249 32.1593 162.249C33.6505 162.249 35.0091 162.519 36.2352 163.061C37.4612 163.591 38.5161 164.37 39.3997 165.397C40.2834 166.413 40.9627 167.645 41.4377 169.092C41.9237 170.527 42.1667 172.157 42.1667 173.979ZM38.008 175.305V173.946C38.008 172.599 37.8755 171.411 37.6104 170.384C37.3563 169.346 36.9752 168.479 36.4671 167.783C35.9701 167.076 35.357 166.546 34.628 166.192C33.899 165.828 33.0761 165.645 32.1593 165.645C31.2426 165.645 30.4252 165.828 29.7072 166.192C28.9892 166.546 28.3762 167.076 27.8681 167.783C27.3711 168.479 26.99 169.346 26.7249 170.384C26.4598 171.411 26.3272 172.599 26.3272 173.946V175.305C26.3272 176.652 26.4598 177.845 26.7249 178.883C26.99 179.922 27.3766 180.8 27.8847 181.518C28.4038 182.225 29.0224 182.761 29.7403 183.125C30.4583 183.478 31.2757 183.655 32.1925 183.655C33.1203 183.655 33.9432 183.478 34.6612 183.125C35.3791 182.761 35.9866 182.225 36.4837 181.518C36.9808 180.8 37.3563 179.922 37.6104 178.883C37.8755 177.845 38.008 176.652 38.008 175.305Z" fill="white"/>
<path d="M55.3717 175.802H49.2248L49.1917 172.77H54.5599C55.4656 172.77 56.2333 172.637 56.8629 172.372C57.5035 172.096 57.9895 171.704 58.3209 171.196C58.6523 170.677 58.818 170.053 58.818 169.324C58.818 168.517 58.6633 167.86 58.354 167.352C58.0448 166.844 57.5698 166.474 56.9292 166.242C56.2996 166.01 55.4932 165.894 54.5102 165.894H50.484V186.704H46.3254V162.58H54.5102C55.8356 162.58 57.0175 162.707 58.0558 162.961C59.1051 163.215 59.9943 163.613 60.7233 164.154C61.4634 164.684 62.0212 165.358 62.3967 166.175C62.7833 166.993 62.9766 167.965 62.9766 169.092C62.9766 170.086 62.7392 170.997 62.2642 171.825C61.7892 172.643 61.0878 173.311 60.16 173.83C59.2322 174.349 58.0779 174.659 56.6972 174.758L55.3717 175.802ZM55.1895 186.704H47.9159L49.7882 183.407H55.1895C56.1283 183.407 56.9126 183.252 57.5422 182.943C58.1718 182.622 58.6412 182.186 58.9505 181.634C59.2708 181.071 59.431 180.413 59.431 179.662C59.431 178.878 59.2929 178.199 59.0168 177.624C58.7406 177.039 58.3043 176.592 57.7079 176.282C57.1114 175.962 56.3327 175.802 55.3717 175.802H50.6994L50.7326 172.77H56.8132L57.7576 173.913C59.0831 173.957 60.171 174.25 61.0216 174.791C61.8831 175.332 62.5238 176.034 62.9435 176.895C63.3632 177.757 63.5731 178.685 63.5731 179.679C63.5731 181.214 63.2362 182.501 62.5624 183.539C61.8997 184.578 60.9442 185.367 59.6961 185.909C58.4479 186.439 56.9457 186.704 55.1895 186.704Z" fill="white"/>
<path d="M83.5546 183.407V186.704H70.7472V183.407H83.5546ZM71.9236 162.58V186.704H67.7649V162.58H71.9236ZM81.8812 172.654V175.901H70.7472V172.654H81.8812ZM83.4718 162.58V165.894H70.7472V162.58H83.4718Z" fill="white"/>
<path d="M96.1135 177.707H89.8341V174.41H96.1135C97.207 174.41 98.0907 174.233 98.7645 173.88C99.4382 173.526 99.9298 173.04 100.239 172.422C100.559 171.792 100.72 171.074 100.72 170.268C100.72 169.506 100.559 168.793 100.239 168.131C99.9298 167.457 99.4382 166.916 98.7645 166.507C98.0907 166.098 97.207 165.894 96.1135 165.894H91.1098V186.704H86.9512V162.58H96.1135C97.9802 162.58 99.5653 162.912 100.869 163.574C102.183 164.226 103.183 165.132 103.868 166.291C104.552 167.44 104.895 168.755 104.895 170.235C104.895 171.792 104.552 173.129 103.868 174.244C103.183 175.36 102.183 176.216 100.869 176.812C99.5653 177.409 97.9802 177.707 96.1135 177.707Z" fill="white"/>
<path d="M108.639 162.58H112.814V183.407H120.27V162.58H124.412V183.407H131.802V162.58H135.944V186.704H108.639V162.58Z" fill="white"/>
<path d="M156.655 183.407V186.704H143.847V183.407H156.655ZM145.024 162.58V186.704H140.865V162.58H145.024ZM154.981 172.654V175.901H143.847V172.654H154.981ZM156.572 162.58V165.894H143.847V162.58H156.572Z" fill="white"/>
<path d="M175.99 172.654V175.951H163.183V172.654H175.99ZM164.21 162.58V186.704H160.051V162.58H164.21ZM179.188 162.58V186.704H175.046V162.58H179.188Z" fill="white"/>
<path d="M200.08 172.654V175.951H187.273V172.654H200.08ZM188.3 162.58V186.704H184.142V162.58H188.3ZM203.278 162.58V186.704H199.136V162.58H203.278Z" fill="white"/>
<path d="M227.468 173.979V175.305C227.468 177.127 227.231 178.762 226.756 180.209C226.281 181.656 225.601 182.888 224.718 183.904C223.845 184.92 222.796 185.699 221.57 186.24C220.344 186.77 218.985 187.035 217.494 187.035C216.014 187.035 214.661 186.77 213.435 186.24C212.22 185.699 211.165 184.92 210.27 183.904C209.375 182.888 208.679 181.656 208.182 180.209C207.696 178.762 207.453 177.127 207.453 175.305V173.979C207.453 172.157 207.696 170.527 208.182 169.092C208.668 167.645 209.353 166.413 210.237 165.397C211.132 164.37 212.186 163.591 213.401 163.061C214.628 162.519 215.981 162.249 217.461 162.249C218.952 162.249 220.311 162.519 221.537 163.061C222.763 163.591 223.818 164.37 224.701 165.397C225.585 166.413 226.264 167.645 226.739 169.092C227.225 170.527 227.468 172.157 227.468 173.979ZM223.309 175.305V173.946C223.309 172.599 223.177 171.411 222.912 170.384C222.658 169.346 222.277 168.479 221.769 167.783C221.271 167.076 220.658 166.546 219.929 166.192C219.2 165.828 218.378 165.645 217.461 165.645C216.544 165.645 215.727 165.828 215.009 166.192C214.291 166.546 213.678 167.076 213.17 167.783C212.672 168.479 212.291 169.346 212.026 170.384C211.761 171.411 211.629 172.599 211.629 173.946V175.305C211.629 176.652 211.761 177.845 212.026 178.883C212.291 179.922 212.678 180.8 213.186 181.518C213.705 182.225 214.324 182.761 215.042 183.125C215.76 183.478 216.577 183.655 217.494 183.655C218.422 183.655 219.245 183.478 219.963 183.125C220.681 182.761 221.288 182.225 221.785 181.518C222.282 180.8 222.658 179.922 222.912 178.883C223.177 177.845 223.309 176.652 223.309 175.305Z" fill="white"/>
<path d="M247.417 183.407V186.704H234.609V183.407H247.417ZM235.785 162.58V186.704H231.627V162.58H235.785ZM245.743 172.654V175.901H234.609V172.654H245.743ZM247.334 162.58V165.894H234.609V162.58H247.334Z" fill="white"/>
<path d="M268.309 175.802H262.162L262.129 172.77H267.497C268.403 172.77 269.171 172.637 269.8 172.372C270.441 172.096 270.927 171.704 271.258 171.196C271.59 170.677 271.756 170.053 271.756 169.324C271.756 168.517 271.601 167.86 271.292 167.352C270.982 166.844 270.507 166.474 269.867 166.242C269.237 166.01 268.431 165.894 267.448 165.894H263.422V186.704H259.263V162.58H267.448C268.773 162.58 269.955 162.707 270.993 162.961C272.043 163.215 272.932 163.613 273.661 164.154C274.401 164.684 274.959 165.358 275.334 166.175C275.721 166.993 275.914 167.965 275.914 169.092C275.914 170.086 275.677 170.997 275.202 171.825C274.727 172.643 274.025 173.311 273.098 173.83C272.17 174.349 271.015 174.659 269.635 174.758L268.309 175.802ZM268.127 186.704H260.854L262.726 183.407H268.127C269.066 183.407 269.85 183.252 270.48 182.943C271.109 182.622 271.579 182.186 271.888 181.634C272.208 181.071 272.369 180.413 272.369 179.662C272.369 178.878 272.23 178.199 271.954 177.624C271.678 177.039 271.242 176.592 270.645 176.282C270.049 175.962 269.27 175.802 268.309 175.802H263.637L263.67 172.77H269.751L270.695 173.913C272.021 173.957 273.109 174.25 273.959 174.791C274.821 175.332 275.461 176.034 275.881 176.895C276.301 177.757 276.511 178.685 276.511 179.679C276.511 181.214 276.174 182.501 275.5 183.539C274.837 184.578 273.882 185.367 272.634 185.909C271.385 186.439 269.883 186.704 268.127 186.704Z" fill="white"/>
<path d="M299.938 173.979V175.305C299.938 177.127 299.701 178.762 299.226 180.209C298.751 181.656 298.072 182.888 297.188 183.904C296.315 184.92 295.266 185.699 294.04 186.24C292.814 186.77 291.455 187.035 289.964 187.035C288.484 187.035 287.131 186.77 285.905 186.24C284.69 185.699 283.635 184.92 282.74 183.904C281.846 182.888 281.15 181.656 280.653 180.209C280.167 178.762 279.924 177.127 279.924 175.305V173.979C279.924 172.157 280.167 170.527 280.653 169.092C281.139 167.645 281.824 166.413 282.707 165.397C283.602 164.37 284.657 163.591 285.872 163.061C287.098 162.519 288.451 162.249 289.931 162.249C291.422 162.249 292.781 162.519 294.007 163.061C295.233 163.591 296.288 164.37 297.172 165.397C298.055 166.413 298.734 167.645 299.209 169.092C299.695 170.527 299.938 172.157 299.938 173.979ZM295.78 175.305V173.946C295.78 172.599 295.647 171.411 295.382 170.384C295.128 169.346 294.747 168.479 294.239 167.783C293.742 167.076 293.129 166.546 292.4 166.192C291.671 165.828 290.848 165.645 289.931 165.645C289.014 165.645 288.197 165.828 287.479 166.192C286.761 166.546 286.148 167.076 285.64 167.783C285.143 168.479 284.762 169.346 284.497 170.384C284.232 171.411 284.099 172.599 284.099 173.946V175.305C284.099 176.652 284.232 177.845 284.497 178.883C284.762 179.922 285.148 180.8 285.656 181.518C286.176 182.225 286.794 182.761 287.512 183.125C288.23 183.478 289.047 183.655 289.964 183.655C290.892 183.655 291.715 183.478 292.433 183.125C293.151 182.761 293.758 182.225 294.255 181.518C294.753 180.8 295.128 179.922 295.382 178.883C295.647 177.845 295.78 176.652 295.78 175.305Z" fill="white"/>
<path d="M323.184 162.58V186.704H319.042V165.894H308.322V186.704H304.18V162.58H323.184Z" fill="white"/>
<path d="M344.01 162.58V165.894H332.446V162.58H344.01ZM347.192 162.58V186.704H343.033V162.58H347.192ZM331.617 162.58H335.743L335.163 174.559C335.086 176.315 334.937 177.862 334.716 179.198C334.495 180.535 334.196 181.678 333.821 182.628C333.445 183.578 332.97 184.357 332.396 184.964C331.822 185.561 331.131 186.002 330.325 186.29C329.53 186.566 328.596 186.704 327.525 186.704H326.465V183.407L327.111 183.357C327.696 183.313 328.199 183.175 328.618 182.943C329.049 182.7 329.414 182.346 329.712 181.882C330.01 181.407 330.259 180.794 330.458 180.043C330.656 179.292 330.811 178.375 330.921 177.293C331.043 176.21 331.131 174.946 331.187 173.499L331.617 162.58Z" fill="white"/>
<path d="M371.415 173.979V175.305C371.415 177.127 371.177 178.762 370.702 180.209C370.227 181.656 369.548 182.888 368.664 183.904C367.792 184.92 366.742 185.699 365.516 186.24C364.29 186.77 362.932 187.035 361.44 187.035C359.96 187.035 358.607 186.77 357.381 186.24C356.166 185.699 355.111 184.92 354.217 183.904C353.322 182.888 352.626 181.656 352.129 180.209C351.643 178.762 351.4 177.127 351.4 175.305V173.979C351.4 172.157 351.643 170.527 352.129 169.092C352.615 167.645 353.3 166.413 354.184 165.397C355.078 164.37 356.133 163.591 357.348 163.061C358.574 162.519 359.927 162.249 361.407 162.249C362.899 162.249 364.257 162.519 365.483 163.061C366.709 163.591 367.764 164.37 368.648 165.397C369.531 166.413 370.211 167.645 370.686 169.092C371.172 170.527 371.415 172.157 371.415 173.979ZM367.256 175.305V173.946C367.256 172.599 367.123 171.411 366.858 170.384C366.604 169.346 366.223 168.479 365.715 167.783C365.218 167.076 364.605 166.546 363.876 166.192C363.147 165.828 362.324 165.645 361.407 165.645C360.491 165.645 359.673 165.828 358.955 166.192C358.237 166.546 357.624 167.076 357.116 167.783C356.619 168.479 356.238 169.346 355.973 170.384C355.708 171.411 355.575 172.599 355.575 173.946V175.305C355.575 176.652 355.708 177.845 355.973 178.883C356.238 179.922 356.625 180.8 357.133 181.518C357.652 182.225 358.27 182.761 358.988 183.125C359.706 183.478 360.524 183.655 361.44 183.655C362.368 183.655 363.191 183.478 363.909 183.125C364.627 182.761 365.235 182.225 365.732 181.518C366.229 180.8 366.604 179.922 366.858 178.883C367.123 177.845 367.256 176.652 367.256 175.305Z" fill="white"/>
<path d="M405.745 183.539L405.43 192.519H401.768V186.704H399.614V183.539H405.745ZM375.59 162.58H379.765V183.407H387.221V162.58H391.363V183.407H398.753V162.58H402.895V186.704H375.59V162.58Z" fill="white"/>
<path d="M425.196 183.407V186.704H412.388V183.407H425.196ZM413.565 162.58V186.704H409.406V162.58H413.565ZM423.522 172.654V175.901H412.388V172.654H423.522ZM425.113 162.58V165.894H412.388V162.58H425.113Z" fill="white"/>
<path d="M444.531 172.654V175.951H431.724V172.654H444.531ZM432.751 162.58V186.704H428.592V162.58H432.751ZM447.729 162.58V186.704H443.587V162.58H447.729Z" fill="white"/>
<path d="M456.792 179.927L467.495 162.58H471.654V186.704H467.495V169.34L456.792 186.704H452.65V162.58H456.792V179.927Z" fill="white"/>
<path d="M492.431 183.407V186.704H479.623V183.407H492.431ZM480.8 162.58V186.704H476.641V162.58H480.8ZM490.757 172.654V175.901H479.623V172.654H490.757ZM492.348 162.58V165.894H479.623V162.58H492.348Z" fill="white"/>
<path d="M505.967 162.58H509.678L516.654 181.187L523.612 162.58H527.324L518.112 186.704H515.162L505.967 162.58ZM504.277 162.58H507.806L508.419 178.685V186.704H504.277V162.58ZM525.485 162.58H529.03V186.704H524.872V178.685L525.485 162.58Z" fill="white"/>
<path d="M553.204 173.979V175.305C553.204 177.127 552.966 178.762 552.491 180.209C552.016 181.656 551.337 182.888 550.453 183.904C549.581 184.92 548.531 185.699 547.305 186.24C546.079 186.77 544.721 187.035 543.229 187.035C541.749 187.035 540.396 186.77 539.17 186.24C537.955 185.699 536.9 184.92 536.006 183.904C535.111 182.888 534.415 181.656 533.918 180.209C533.432 178.762 533.189 177.127 533.189 175.305V173.979C533.189 172.157 533.432 170.527 533.918 169.092C534.404 167.645 535.089 166.413 535.972 165.397C536.867 164.37 537.922 163.591 539.137 163.061C540.363 162.519 541.716 162.249 543.196 162.249C544.687 162.249 546.046 162.519 547.272 163.061C548.498 163.591 549.553 164.37 550.437 165.397C551.32 166.413 552 167.645 552.475 169.092C552.961 170.527 553.204 172.157 553.204 173.979ZM549.045 175.305V173.946C549.045 172.599 548.912 171.411 548.647 170.384C548.393 169.346 548.012 168.479 547.504 167.783C547.007 167.076 546.394 166.546 545.665 166.192C544.936 165.828 544.113 165.645 543.196 165.645C542.279 165.645 541.462 165.828 540.744 166.192C540.026 166.546 539.413 167.076 538.905 167.783C538.408 168.479 538.027 169.346 537.762 170.384C537.497 171.411 537.364 172.599 537.364 173.946V175.305C537.364 176.652 537.497 177.845 537.762 178.883C538.027 179.922 538.414 180.8 538.922 181.518C539.441 182.225 540.059 182.761 540.777 183.125C541.495 183.478 542.313 183.655 543.229 183.655C544.157 183.655 544.98 183.478 545.698 183.125C546.416 182.761 547.024 182.225 547.521 181.518C548.018 180.8 548.393 179.922 548.647 178.883C548.912 177.845 549.045 176.652 549.045 175.305Z" fill="white"/>
<path d="M587.533 183.539L587.219 192.519H583.557V186.704H581.403V183.539H587.533ZM557.379 162.58H561.554V183.407H569.01V162.58H573.152V183.407H580.542V162.58H584.684V186.704H557.379V162.58Z" fill="white"/>
<path d="M607.134 172.654V175.951H594.326V172.654H607.134ZM595.354 162.58V186.704H591.195V162.58H595.354ZM610.332 162.58V186.704H606.189V162.58H610.332Z" fill="white"/>
<path d="M634.521 173.979V175.305C634.521 177.127 634.284 178.762 633.809 180.209C633.334 181.656 632.655 182.888 631.771 183.904C630.899 184.92 629.849 185.699 628.623 186.24C627.397 186.77 626.038 187.035 624.547 187.035C623.067 187.035 621.714 186.77 620.488 186.24C619.273 185.699 618.218 184.92 617.323 183.904C616.429 182.888 615.733 181.656 615.236 180.209C614.75 178.762 614.507 177.127 614.507 175.305V173.979C614.507 172.157 614.75 170.527 615.236 169.092C615.722 167.645 616.407 166.413 617.29 165.397C618.185 164.37 619.24 163.591 620.455 163.061C621.681 162.519 623.034 162.249 624.514 162.249C626.005 162.249 627.364 162.519 628.59 163.061C629.816 163.591 630.871 164.37 631.755 165.397C632.638 166.413 633.318 167.645 633.792 169.092C634.279 170.527 634.521 172.157 634.521 173.979ZM630.363 175.305V173.946C630.363 172.599 630.23 171.411 629.965 170.384C629.711 169.346 629.33 168.479 628.822 167.783C628.325 167.076 627.712 166.546 626.983 166.192C626.254 165.828 625.431 165.645 624.514 165.645C623.597 165.645 622.78 165.828 622.062 166.192C621.344 166.546 620.731 167.076 620.223 167.783C619.726 168.479 619.345 169.346 619.08 170.384C618.815 171.411 618.682 172.599 618.682 173.946V175.305C618.682 176.652 618.815 177.845 619.08 178.883C619.345 179.922 619.731 180.8 620.24 181.518C620.759 182.225 621.377 182.761 622.095 183.125C622.813 183.478 623.631 183.655 624.547 183.655C625.475 183.655 626.298 183.478 627.016 183.125C627.734 182.761 628.341 182.225 628.839 181.518C629.336 180.8 629.711 179.922 629.965 178.883C630.23 177.845 630.363 176.652 630.363 175.305Z" fill="white"/>
<path d="M652.929 178.85H657.071C656.939 180.43 656.497 181.838 655.746 183.075C654.995 184.301 653.94 185.268 652.581 185.975C651.222 186.682 649.571 187.035 647.627 187.035C646.136 187.035 644.794 186.77 643.601 186.24C642.408 185.699 641.386 184.936 640.536 183.953C639.685 182.959 639.034 181.761 638.581 180.358C638.139 178.955 637.918 177.387 637.918 175.653V173.648C637.918 171.914 638.144 170.345 638.597 168.942C639.061 167.54 639.724 166.341 640.586 165.347C641.447 164.342 642.48 163.574 643.684 163.044C644.899 162.514 646.263 162.249 647.776 162.249C649.698 162.249 651.322 162.602 652.647 163.309C653.973 164.016 655 164.994 655.729 166.242C656.469 167.49 656.922 168.92 657.088 170.533H652.946C652.835 169.495 652.592 168.606 652.217 167.865C651.852 167.125 651.311 166.562 650.593 166.175C649.875 165.778 648.936 165.579 647.776 165.579C646.826 165.579 645.998 165.756 645.291 166.109C644.584 166.463 643.993 166.982 643.518 167.667C643.043 168.351 642.684 169.196 642.441 170.202C642.209 171.196 642.093 172.333 642.093 173.615V175.653C642.093 176.868 642.198 177.972 642.408 178.966C642.629 179.949 642.96 180.794 643.402 181.501C643.855 182.208 644.429 182.755 645.125 183.142C645.821 183.528 646.655 183.721 647.627 183.721C648.809 183.721 649.764 183.534 650.493 183.158C651.234 182.783 651.791 182.236 652.167 181.518C652.554 180.789 652.808 179.9 652.929 178.85Z" fill="white"/>
<path d="M670.276 162.58V186.704H666.151V162.58H670.276ZM677.848 162.58V165.894H658.645V162.58H677.848Z" fill="white"/>
<path d="M685.138 179.927L695.841 162.58H700V186.704H695.841V169.34L685.138 186.704H680.996V162.58H685.138V179.927Z" fill="white"/>
<defs>
<linearGradient id="paint0_linear_40_100" x1="364.056" y1="-29.1525" x2="274.036" y2="96.6797" gradientUnits="userSpaceOnUse">
<stop stop-color="#FFFA8F"/>
<stop offset="1" stop-color="#FF9D53"/>
</linearGradient>
<linearGradient id="paint1_linear_40_100" x1="105.508" y1="-30.4611" x2="8.94537" y2="60.3103" gradientUnits="userSpaceOnUse">
<stop stop-color="#FFFA8F"/>
<stop offset="1" stop-color="#FF9D53"/>
</linearGradient>
<linearGradient id="paint2_linear_40_100" x1="28.1374" y1="-27.2653" x2="-55.6653" y2="24.129" gradientUnits="userSpaceOnUse">
<stop stop-color="#FFFA8F"/>
<stop offset="1" stop-color="#FF9D53"/>
</linearGradient>
<linearGradient id="paint3_linear_40_100" x1="484.136" y1="-30.4611" x2="387.573" y2="60.3066" gradientUnits="userSpaceOnUse">
<stop stop-color="#FFFA8F"/>
<stop offset="1" stop-color="#FF9D53"/>
</linearGradient>
<linearGradient id="paint4_linear_40_100" x1="273.373" y1="-70.4581" x2="243.967" y2="-66.8477" gradientUnits="userSpaceOnUse">
<stop stop-color="#FFFA8F"/>
<stop offset="1" stop-color="#FF9D53"/>
</linearGradient>
<linearGradient id="paint5_linear_40_100" x1="203.853" y1="-30.1111" x2="107.264" y2="61.0438" gradientUnits="userSpaceOnUse">
<stop stop-color="#FFFA8F"/>
<stop offset="1" stop-color="#FF9D53"/>
</linearGradient>
<linearGradient id="paint6_linear_40_100" x1="584.822" y1="-68.8142" x2="512.924" y2="-44.9302" gradientUnits="userSpaceOnUse">
<stop stop-color="#FFFA8F"/>
<stop offset="1" stop-color="#FF9D53"/>
</linearGradient>
<linearGradient id="paint7_linear_40_100" x1="663.477" y1="-70.6511" x2="553.905" y2="-2.934" gradientUnits="userSpaceOnUse">
<stop stop-color="#FFFA8F"/>
<stop offset="1" stop-color="#FF9D53"/>
</linearGradient>
</defs>
</svg>
