<svg width="68" height="69" viewBox="0 0 68 69" fill="none" xmlns="http://www.w3.org/2000/svg">
<path fill-rule="evenodd" clip-rule="evenodd" d="M34 68.5193C52.7777 68.5193 68 53.297 68 34.5193C68 15.7416 52.7777 0.519287 34 0.519287C15.2223 0.519287 0 15.7416 0 34.5193C0 53.297 15.2223 68.5193 34 68.5193ZM30.2084 45.3648L46.2809 35.3684C46.9101 34.9771 46.9101 34.0614 46.2809 33.6701L30.2084 23.6738C29.5423 23.2595 28.6803 23.7385 28.6803 24.523V44.5156C28.6803 45.3001 29.5423 45.7791 30.2084 45.3648Z" fill="url(#paint0_linear_40_52)"/>
<path fill-rule="evenodd" clip-rule="evenodd" d="M34 68.5193C52.7777 68.5193 68 53.297 68 34.5193C68 15.7416 52.7777 0.519287 34 0.519287C15.2223 0.519287 0 15.7416 0 34.5193C0 53.297 15.2223 68.5193 34 68.5193ZM30.2084 45.3648L46.2809 35.3684C46.9101 34.9771 46.9101 34.0614 46.2809 33.6701L30.2084 23.6738C29.5423 23.2595 28.6803 23.7385 28.6803 24.523V44.5156C28.6803 45.3001 29.5423 45.7791 30.2084 45.3648Z" fill="#FCD576"/>
<defs>
<linearGradient id="paint0_linear_40_52" x1="0" y1="0.519287" x2="0" y2="68.5193" gradientUnits="userSpaceOnUse">
<stop stop-color="white" stop-opacity="0.141281"/>
<stop offset="1" stop-color="#A7A7A7" stop-opacity="0.141281"/>
</linearGradient>
</defs>
</svg>
