<svg width="107" height="32" viewBox="0 0 107 32" fill="none" xmlns="http://www.w3.org/2000/svg">
<path d="M106.789 0H0V31.9984H106.789V0Z" fill="#F3C224"/>
<path d="M61.6861 15.0242C61.6861 13.0677 63.4955 11.7523 65.1843 11.7523C67.2383 11.7523 68.514 13.2016 68.514 15.5348V24.3921H70.8391V15.2523C70.8391 13.5601 71.7744 11.7523 74.3952 11.7523C76.4343 11.7523 77.753 13.2396 77.753 15.5348V24.3921H80.078V15.5348C80.078 11.8548 78.0091 9.56778 74.6794 9.56778C72.7179 9.56778 71.0208 10.4122 69.9616 11.8978C69.2676 10.7642 67.9787 9.56778 65.609 9.56778C64.0127 9.56778 62.6445 10.1362 61.6861 11.1839V9.76608H59.3594V24.3921H61.6861V15.0242Z" fill="#101010"/>
<path d="M35.0934 16.8651C35.0802 14.6541 34.3862 12.7818 33.0873 11.4516C31.8662 10.2007 30.1575 9.5116 28.277 9.5116C24.0153 9.5116 20.9219 12.6876 20.9219 17.065C20.9219 21.4969 23.9228 24.5904 28.2208 24.5904C31.068 24.5904 33.2873 23.3642 34.6357 21.0409L34.7514 20.8409L32.7585 19.5603L32.6313 19.7767C31.5803 21.5713 30.1773 22.4075 28.2208 22.4075C25.4942 22.4075 23.3973 20.365 23.2634 17.6153H35.1017L35.0934 16.8651ZM23.3609 15.52C23.6177 14.4265 24.2383 13.4526 25.1209 12.7579C26.0036 12.0632 27.096 11.6889 28.2192 11.6962C30.5326 11.6962 32.3173 13.2214 32.7271 15.52H23.3609Z" fill="#101010"/>
<path d="M13.3719 11.9506H20.0313V9.76608H11.0469V24.4202H13.3719V11.9506Z" fill="#101010"/>
<path d="M89.3615 24.5904C92.2087 24.5904 94.4279 23.3642 95.7763 21.0409L95.892 20.8409L93.8991 19.5603L93.7719 19.7767C92.7209 21.5713 91.318 22.4075 89.3615 22.4075C86.6349 22.4075 84.5379 20.365 84.3958 17.6153H96.2341V16.8618C96.2208 14.6508 95.5268 12.7785 94.228 11.4483C93.0068 10.1974 91.2981 9.50829 89.4176 9.50829C85.1559 9.50829 82.0625 12.6843 82.0625 17.0617C82.0625 21.4969 85.0634 24.5904 89.3615 24.5904ZM84.5032 15.52C84.76 14.4265 85.3806 13.4526 86.2632 12.7579C87.1459 12.0632 88.2382 11.6889 89.3615 11.6962C91.6749 11.6962 93.4596 13.2214 93.8694 15.52H84.5032Z" fill="#101010"/>
<path d="M56.3485 5.44653H54.0234V24.3921H56.3485V5.44653Z" fill="#101010"/>
<path d="M44.1848 24.6482C45.8273 24.6655 47.4248 24.1118 48.7042 23.0817V24.4202H51.0028V9.79582H48.7042V11.1492C47.4227 10.1221 45.8271 9.56671 44.1848 9.57604C42.1059 9.57604 40.2188 10.3494 38.8539 11.754C37.489 13.1586 36.7734 15.0507 36.7734 17.1295C36.7734 19.2083 37.5121 21.1136 38.8539 22.4917C40.1957 23.8699 42.1043 24.6482 44.1848 24.6482ZM39.0985 17.1212C39.0985 14.1468 41.2368 11.8945 44.0724 11.8945C47.0121 11.8945 48.9885 13.9947 48.9885 17.1212C48.9885 20.2477 47.0055 22.3215 44.0724 22.3215C41.2368 22.3215 39.0985 20.0857 39.0985 17.1212Z" fill="#101010"/>
</svg>
