<svg version="1.1" xmlns="http://www.w3.org/2000/svg" xmlns:xlink="http://www.w3.org/1999/xlink">

    <symbol viewBox="0 0 20 20" id="back-link">
        <path d="M8.33333 18.3333L0 10L8.33333 1.66667L9.8125 3.14584L2.95833 10L9.8125 16.8542L8.33333 18.3333Z" />
    </symbol>

    <symbol viewBox="0 0 52 21" id="welcome-discount-link">
        <path fill-rule="evenodd" clip-rule="evenodd" d="M10 0.385376C4.47715 0.385376 0 4.86253 0 10.3854C0 15.9082 4.47715 20.3854 10 20.3854H42C47.5228 20.3854 52 15.9082 52 10.3854C52 4.86253 47.5228 0.385376 42 0.385376H10ZM31.972 8.53904C33.7871 9.72267 33.7871 12.3812 31.972 13.5649L29.4192 15.2295C27.4237 16.5308 24.7806 15.0989 24.7806 12.7166V12.4024H19.3505C18.6046 12.4024 18 11.7978 18 11.0519C18 10.3061 18.6046 9.70148 19.3505 9.70148H24.7806V9.38732C24.7806 7.00501 27.4237 5.57312 29.4192 6.8744L31.972 8.53904Z" />
    </symbol>

    <symbol viewBox="0 0 30 31" id="form-input-hint">
        <path d="M14.9375 23.1162C15.375 23.1162 15.745 22.965 16.0475 22.6625C16.3492 22.3608 16.5 21.9912 16.5 21.5537C16.5 21.1162 16.3492 20.7466 16.0475 20.445C15.745 20.1425 15.375 19.9912 14.9375 19.9912C14.5 19.9912 14.13 20.1425 13.8275 20.445C13.5258 20.7466 13.375 21.1162 13.375 21.5537C13.375 21.9912 13.5258 22.3608 13.8275 22.6625C14.13 22.965 14.5 23.1162 14.9375 23.1162ZM13.8125 18.3037H16.125C16.125 17.6162 16.2033 17.0745 16.36 16.6787C16.5158 16.2829 16.9583 15.7412 17.6875 15.0537C18.2292 14.512 18.6562 13.9962 18.9688 13.5062C19.2812 13.017 19.4375 12.4287 19.4375 11.7412C19.4375 10.5745 19.0104 9.67871 18.1562 9.05371C17.3021 8.42871 16.2917 8.11621 15.125 8.11621C13.9375 8.11621 12.9742 8.42871 12.235 9.05371C11.495 9.67871 10.9792 10.4287 10.6875 11.3037L12.75 12.1162C12.8542 11.7412 13.0887 11.335 13.4537 10.8975C13.8179 10.46 14.375 10.2412 15.125 10.2412C15.7917 10.2412 16.2917 10.4233 16.625 10.7875C16.9583 11.1525 17.125 11.5537 17.125 11.9912C17.125 12.4079 17 12.7983 16.75 13.1625C16.5 13.5275 16.1875 13.8662 15.8125 14.1787C14.8958 14.9912 14.3333 15.6058 14.125 16.0225C13.9167 16.4391 13.8125 17.1995 13.8125 18.3037ZM15 28.1162C13.2708 28.1162 11.6458 27.7879 10.125 27.1312C8.60417 26.4754 7.28125 25.585 6.15625 24.46C5.03125 23.335 4.14083 22.012 3.485 20.4912C2.82833 18.9704 2.5 17.3454 2.5 15.6162C2.5 13.887 2.82833 12.262 3.485 10.7412C4.14083 9.22038 5.03125 7.89746 6.15625 6.77246C7.28125 5.64746 8.60417 4.75663 10.125 4.09996C11.6458 3.44413 13.2708 3.11621 15 3.11621C16.7292 3.11621 18.3542 3.44413 19.875 4.09996C21.3958 4.75663 22.7188 5.64746 23.8438 6.77246C24.9688 7.89746 25.8592 9.22038 26.515 10.7412C27.1717 12.262 27.5 13.887 27.5 15.6162C27.5 17.3454 27.1717 18.9704 26.515 20.4912C25.8592 22.012 24.9688 23.335 23.8438 24.46C22.7188 25.585 21.3958 26.4754 19.875 27.1312C18.3542 27.7879 16.7292 28.1162 15 28.1162ZM15 25.6162C17.7917 25.6162 20.1562 24.6475 22.0938 22.71C24.0312 20.7725 25 18.4079 25 15.6162C25 12.8245 24.0312 10.46 22.0938 8.52246C20.1562 6.58496 17.7917 5.61621 15 5.61621C12.2083 5.61621 9.84375 6.58496 7.90625 8.52246C5.96875 10.46 5 12.8245 5 15.6162C5 18.4079 5.96875 20.7725 7.90625 22.71C9.84375 24.6475 12.2083 25.6162 15 25.6162Z" />
    </symbol>

    <symbol viewBox="0 0 49 40" id="form-input-hint-arrow">
        <rect width="34.0211" height="33.0689" rx="4" transform="matrix(0.775317 -0.631573 -0.775317 -0.631573 24.2773 41.0021)" />
    </symbol>

    <symbol viewBox="0 0 36 36" id="window-close">
        <path d="M9.6 28.5L7.5 26.4L15.9 18L7.5 9.6L9.6 7.5L18 15.9L26.4 7.5L28.5 9.6L20.1 18L28.5 26.4L26.4 28.5L18 20.1L9.6 28.5Z" />
    </symbol>

</svg>