<svg width="81" height="81" viewBox="0 0 81 81" fill="none" xmlns="http://www.w3.org/2000/svg">
<mask id="mask0_31_63" style="mask-type:alpha" maskUnits="userSpaceOnUse" x="0" y="0" width="81" height="81">
<rect x="0.5" y="0.5" width="80" height="80" fill="#D9D9D9"/>
</mask>
<g mask="url(#mask0_31_63)">
<path d="M35.7526 54.6666L58.1693 32.25L54.6693 28.75L35.7526 47.6666L26.2526 38.1666L22.7526 41.6666L35.7526 54.6666ZM40.5026 72.1666C36.1137 72.1666 31.9893 71.3333 28.1293 69.6666C24.267 68 20.9193 65.75 18.0859 62.9166C15.2526 60.0833 13.0026 56.7355 11.3359 52.8733C9.66927 49.0133 8.83594 44.8889 8.83594 40.5C8.83594 36.1111 9.66927 31.9855 11.3359 28.1233C13.0026 24.2633 15.2526 20.9166 18.0859 18.0833C20.9193 15.25 24.267 13 28.1293 11.3333C31.9893 9.66665 36.1137 8.83331 40.5026 8.83331C44.8915 8.83331 49.017 9.66665 52.8793 11.3333C56.7393 13 60.0859 15.25 62.9193 18.0833C65.7526 20.9166 68.0026 24.2633 69.6693 28.1233C71.3359 31.9855 72.1693 36.1111 72.1693 40.5C72.1693 44.8889 71.3359 49.0133 69.6693 52.8733C68.0026 56.7355 65.7526 60.0833 62.9193 62.9166C60.0859 65.75 56.7393 68 52.8793 69.6666C49.017 71.3333 44.8915 72.1666 40.5026 72.1666ZM40.5026 67.1666C47.947 67.1666 54.2526 64.5833 59.4193 59.4166C64.5859 54.25 67.1693 47.9444 67.1693 40.5C67.1693 33.0555 64.5859 26.75 59.4193 21.5833C54.2526 16.4166 47.947 13.8333 40.5026 13.8333C33.0582 13.8333 26.7526 16.4166 21.5859 21.5833C16.4193 26.75 13.8359 33.0555 13.8359 40.5C13.8359 47.9444 16.4193 54.25 21.5859 59.4166C26.7526 64.5833 33.0582 67.1666 40.5026 67.1666Z" fill="url(#paint0_linear_31_63)"/>
</g>
<defs>
<linearGradient id="paint0_linear_31_63" x1="40.8641" y1="-29.1354" x2="-23.9786" y2="36.4938" gradientUnits="userSpaceOnUse">
<stop stop-color="#98FF8F"/>
<stop offset="1" stop-color="#FF9D53"/>
</linearGradient>
</defs>
</svg>
